P2
# Generated by OpenCV 3.4.2
64 64
255
   0   0   0   0   0   0   0 217 221 223 223 230 234 235 235 236 237 238 238 239 240 240 241 241 242 242 243 243 243 243 243 243 243 243 243 243 243 243 243 243 243 243 243 243 242 242 241 241 240 240 240 239 236 228 228 225 222   0   0   0   0   0   0   0
   0   0   0   0   0 215 218 226 226 227 227 227 228 229 230 231 232 233 234 235 235 236 236 237 238 240 239 240 240 240 240 240 240 240 240 240 240 240 240 240 240 240 240 239 240 238 237 237 236 236 235 235 235 234 234 233 232 223 220   0   0   0   0   0
   0   0   0   0 211 222 224 225 226 225 227 228 227 228 229 230 231 232 233 234 236 237 236 238 239 238 240 241 241 241 241 241 241 241 241 241 241 241 241 241 241 241 241 240 238 239 238 236 237 237 236 234 233 234 233 231 230 231 227 216   0   0   0   0
   0   0   0 208 220 223 224 223 224 226 225 227 228 229 230 231 232 233 234 235 236 237 236 238 237 239 240 241 241 241 241 241 241 241 241 241 241 241 241 241 241 241 239 240 239 237 238 236 237 235 234 235 234 233 231 232 231 230 229 225 213   0   0   0
   0   0 208 218 221 222 223 224 225 224 226 225 227 228 229 230 231 232 233 234 235 236 237 237 238 239 240 240 241 241 241 241 241 241 241 241 241 241 241 241 241 241 240 239 239 238 237 237 236 236 235 234 232 231 232 231 230 228 229 228 223 214   0   0
   0   0 198 220 221 220 222 223 224 225 224 226 226 225 222 220 220 221 222 223 224 225 226 227 227 228 229 231 230 230 230 230 230 230 230 230 230 230 230 230 230 231 229 230 228 227 226 226 226 229 232 233 233 232 231 230 228 229 228 227 226 202   0   0
   0 199 218 219 220 221 220 222 223 224 224 219 208 220 232 239 241 241 241 242 242 242 242 242 243 243 243 243 243 243 243 243 243 243 243 243 243 243 243 243 243 243 243 243 243 242 242 242 241 233 224 214 225 230 230 228 229 228 227 225 226 224 207   0
   0 165 220 217 219 220 221 220 222 221 207 224 254 252 224 214 211 212 213 213 213 213 213 213 212 212 212 212 212 212 212 212 212 212 212 212 212 212 212 212 212 212 212 212 212 213 212 211 213 224 252 254 227 215 228 228 228 227 225 226 226 227 170   0
   0 144 220 218 217 219 220 220 220 205 240 253 195 165 171 175 177 177 178 178 178 178 178 178 178 178 178 178 178 178 178 178 178 178 178 178 178 178 178 178 178 178 178 178 178 178 177 177 175 171 165 195 253 242 212 226 227 225 226 224 225 227 147   0
  85 158 218 217 216 218 219 219 205 240 244 170 173 182 186 188 189 190 190 191 191 191 191 191 194 195 196 195 194 191 191 191 191 191 191 191 191 191 191 191 191 191 191 191 191 190 190 189 188 186 182 173 170 244 241 212 225 226 224 225 224 225 163  98
  51 163 217 216 217 216 218 213 221 251 169 176 185 191 193 195 196 197 197 198 198 199 202 181 122  84  69  79 122 194 200 198 198 198 198 198 198 199 201 201 201 200 198 198 198 197 197 196 195 193 191 185 176 169 251 224 220 225 223 224 222 225 168  60
  32 164 217 214 216 215 217 201 254 197 172 185 192 197 199 200 201 201 201 201 204 189  84  28  31  37  45  37  31  38 164 204 201 201 201 201 207 165 105  83  97 145 204 203 201 201 201 201 200 199 197 192 185 172 197 254 207 224 222 223 221 224 169  39
  15 163 216 213 215 215 215 209 255 166 181 190 196 200 201 202 202 202 202 204 174  38  33  71 105 122 121 119  91  40  32 176 203 202 203 195  77  28  33  43  35  30  50 169 205 202 202 202 202 201 200 196 190 181 166 255 214 222 222 222 220 223 168  20
  15 164 216 214 213 214 212 218 239 168 185 193 198 201 202 202 202 202 202 200  44  40 105 125 128 131 131 127 121 109  40  60 206 203 187  46  35  78 109 113 112  86  40  29 142 205 202 202 202 202 201 198 193 185 168 238 221 218 221 221 219 222 167  20
  15 164 215 214 214 214 210 221 235 171 186 194 200 201 202 202 202 202 204 132  30  96 124 131 139 143 143 138 129 121  95  28 160 201  48  42 102 117 123 126 125 123 112  49  28 158 204 202 202 202 201 200 194 186 171 235 224 217 220 220 218 221 167  20
  15 162 215 213 212 214 210 221 235 174 188 195 201 202 202 202 202 202 205  85  43 119 128 139 149 154 153 146 137 125 116  53 101  88  38 102 118 128 137 142 141 136 126 114  42  42 203 202 202 202 202 201 195 188 174 235 224 216 219 219 217 220 166  20
  15 163 214 212 211 213 209 220 235 174 189 195 201 202 202 202 202 202 206  72  56 121 131 143 154 161 160 152 141 128 116  87  42  32  90 113 126 140 151 157 157 149 137 124  87  31 137 204 202 202 202 201 195 189 174 235 223 215 218 218 216 219 165  20
  15 161 213 210 212 212 208 220 235 174 189 195 201 202 202 202 202 202 205  83  52 121 131 143 153 160 159 151 140 128 116 106  34  60 105 117 133 148 161 169 168 158 144 129 114  32  96 205 202 202 202 201 195 189 174 235 223 214 217 217 215 218 164  19
  15 162 213 211 211 211 207 220 236 174 189 195 201 202 202 202 202 202 205 116  36 118 127 138 146 152 151 145 135 124 113 102  33  90 104 118 134 150 164 175 173 161 146 131 118  34  89 205 202 202 202 201 195 189 174 236 222 212 216 214 215 217 164  19
  15 159 212 209 209 211 207 219 236 174 189 195 201 202 202 204 204 204 205 167  28  98 121 129 137 141 140 135 129 121 103  74  43  97 105 117 131 146 159 167 166 156 143 127 107  31 116 205 202 202 202 201 195 189 174 236 222 211 215 213 213 216 162  19
  15 157 210 210 210 210 206 219 236 174 189 195 201 205 204 162 135 127 141 187  56  65 114 120 125 128 129 120  72  39  29  30  32  30  51  96 127 137 148 153 152 146 134 123  78  28 178 203 202 202 202 201 195 189 174 236 221 210 214 214 214 214 160  19
  14 156 207 206 209 209 206 219 236 174 189 195 205 123  39  29  30  42  46  39  39  36 101 110 113 119  84  30  58 128 171 191 187 154  89  28  67 127 133 138 137 132 123 112  36  89 206 202 202 202 202 201 195 189 174 236 221 210 214 213 211 211 159  19
  14 156 207 204 204 208 205 219 236 174 189 200  80  30  54 104 134 138 135 132 125  55  51 104 106  63  31 131 195 194 194 195 195 193 194 161  43  56 121 122 121 118 115  56  47 198 202 202 202 202 202 201 195 189 174 236 220 209 212 208 207 210 159  19
  14 156 206 203 203 203 202 218 236 174 192 129  30  73 138 142 146 148 145 139 132 124  42  62  70  34 162 195 197 202 206 207 206 203 198 194 179  43  62 110 107 107  62  53 195 207 205 205 203 202 202 201 195 189 174 236 219 205 207 208 206 209 158  18
  14 156 206 204 204 204 198 214 235 174 195  48  47 137 144 154 161 163 160 151 140 132 120  49  30 139 194 199 207 213 218 220 219 215 207 201 195 161  28  85  89  48  36  78  64  63  79 113 165 207 203 201 195 189 174 235 217 203 207 207 207 209 158  18
  14 156 206 204 204 204 198 215 234 168 160  25  89 141 153 166 176 179 174 163 150 135 129  72  67 195 197 207 216 225 230 233 231 226 219 209 198 195  93  37  33  40  67  80  85  80  64  36  28  64 186 203 195 185 167 234 216 202 206 205 206 208 157  18
  14 156 206 204 204 204 198 215 234 170 133  11  99 139 157 174 187 192 184 170 154 140 132  36 136 194 202 213 225 234 241 244 242 236 227 216 205 195 161  30 106 146 145 147 150 151 151 149 105  35  31 183 191 183 167 234 216 200 206 206 204 207 157  18
  14 156 206 204 204 204 198 215 234 170 124  12 105 134 150 169 185 192 186 171 155 140 119  28 176 194 206 218 230 241 249 252 250 243 233 221 209 197 194  35 114 143 148 153 157 159 156 150 143 117  14  69 195 183 167 234 216 199 205 204 205 207 156  18
  14 156 206 204 204 204 198 215 234 170 134  12  96 132 146 161 173 176 170 159 146 135 106  28 193 195 207 220 233 244 252 255 253 246 236 223 210 198 194  53 100 147 151 158 163 164 161 155 148 143  67  10 184 183 167 234 216 199 205 205 205 207 156  18
  14 156 206 203 203 204 200 215 234 169 165  10  70 127 137 149 158 160 156 146 133 122  98   9 180 191 204 217 231 242 250 253 251 244 234 221 208 195 190  31  93 143 152 164 173 177 175 166 155 145 104  11 145 185 167 234 215 198 204 203 203 206 156  18
  14 156 207 205 205 205 199 216 234 167 190  44  22 117 127 135 141 143 140 132 123 116 115  11 149 188 199 211 224 235 242 246 244 237 227 215 201 190 177   8 117 145 157 170 181 188 183 173 160 148 118  11 130 186 167 234 215 198 204 204 204 206 156  18
  15 157 207 204 204 205 201 216 234 167 185 154  10  34 107 126 128 128 126 122 118 118 114  23  94 187 192 204 216 225 231 234 232 227 218 207 196 189 117  19 139 144 158 171 182 190 185 174 161 149 114  11 135 185 167 234 215 198 204 204 204 206 156  18
  15 157 208 206 206 206 202 216 234 167 183 195 142  17  13  44  72  87  92  86  72  44  15  31  22 178 187 196 205 213 218 221 219 215 207 198 189 186  30  73 137 142 154 166 176 181 177 168 157 147  93  11 156 185 167 234 215 198 204 204 204 206 156  18
  15 158 208 207 207 207 203 217 234 167 183 191 198 190 107  53  21  16  14  15  32  55  84  89  24  66 189 187 194 199 205 207 206 202 196 189 190  83  25 135 133 138 147 157 165 168 166 159 150 146  46  17 194 183 167 234 215 198 204 204 204 206 156  18
  15 158 209 206 206 208 202 217 234 167 183 191 196 198 202 180  19  53  96 107 111 111 106  98  81  15  71 184 187 189 191 192 193 190 188 188  88  13  26 104 138 134 139 146 152 155 153 148 147  95  11  96 195 183 167 234 216 200 204 203 203 206 157  17
  15 159 210 208 208 208 204 217 234 167 183 191 196 198 203  46  27 102 112 123 128 129 125 115 103  80  21  28 114 173 188 187 188 185 134  42  16  44  18  60  53 116 139 140 143 145 146 135  75  13  33 194 191 183 167 234 216 199 205 205 205 208 148  15
  15 159 211 209 209 209 205 218 234 167 183 191 196 200 153  11  71 112 127 140 149 150 143 130 115  98  85  50  18  12  37  53  44  18  13  36  62  62  40  29 174  68  29  55  65  60  40  13  10  59 187 196 188 180 164 233 214 198 202 201 200 199 110  15
  15 160 212 210 210 210 206 218 234 167 183 191 196 201  95  13 100 120 138 155 166 168 159 143 125 105  89  83  24  43  43  40  45  58  73  76  73  68  65  17 106 205 189 121  81  67  75 103 156 182 185 194 194 189 180 204 205 205 200 184 165 146  88  14
  15 162 212 211 211 211 208 219 234 167 183 191 196 202  74  16 108 125 145 163 179 182 168 150 129 110  92  67  17  59  64  70  77  82  85  85  83  78  72  40  26 202 198 200 201 200 191 172 205 237 234 219 206 196 191 205 232 223 185 147 122 117 108  13
  15 161 213 212 212 212 209 219 234 167 183 191 196 201  89  13 100 123 144 163 177 179 166 149 128 109  94  33  30  61  67  77  85  92  96  96  93  86  79  59  11 166 199 196 191 168 184 250 245 231 219 205 196 191 206 230 223 186 148 118 112 143 122  13
  15 163 214 213 212 214 210 220 234 167 183 191 196 200 145  11  65 119 136 152 163 163 155 140 123 106  64  15  30  64  71  82  92 100 106 107 103  94  84  74  13 125 199 188 159 202 255 243 231 219 205 196 191 206 230 223 186 149 115 112 141 162 136  15
  15 164 215 214 213 215 211 220 234 167 183 191 196 198 202  45  17  97 124 136 144 145 138 127 114  79  13  87  17  66  75  85  96 106 114 115 109  99  88  79  15 107 193 161 192 255 243 231 219 206 196 191 206 230 223 187 149 114 111 140 160 180 146  17
  15 163 216 215 214 216 212 221 234 166 182 190 196 198 199 179  20  21  92 121 124 125 120 114  79  14  61 207  20  51  75  85  96 107 115 116 109 100  88  77  14 110 174 157 255 243 232 218 206 196 191 205 230 223 187 149 112 111 140 160 177 193 155  18
  16 165 217 216 215 217 213 221 233 164 181 189 195 197 198 200 172  27  12  52  89  99  84  44   9  64 200 202  82  23  74  83  93 103 109 109 105  95  86  56  11 140 143 227 245 232 218 206 196 191 205 230 224 188 150 112 111 139 159 177 191 205 163  19
  16 166 218 217 216 218 215 218 237 161 179 188 194 196 198 198 200 193  80  11  12  13  12  17 118 202 198 199 168   9  43  80  86  94  99 100  95  90  75  20  36 173 150 250 232 218 206 196 191 205 230 224 188 150 111 110 139 159 176 190 203 217 171  19
  16 167 219 218 217 219 218 210 255 159 174 184 191 195 196 197 198 198 202 186 133 117 142 197 201 198 198 198 203  86  12  44  80  86  89  90  85  55  18  18 160 151 180 234 218 206 197 191 205 230 224 189 150 111 110 138 158 176 190 203 214 226 175  20
  16 167 220 219 218 220 220 203 254 192 165 179 187 192 194 196 196 196 196 197 199 199 199 196 196 196 196 196 196 200  65  12  20  39  43  34  15  11  46 174 181 137 194 221 206 197 191 203 230 225 189 152 110 109 138 158 176 190 202 214 223 232 176  20
  15 168 221 220 219 221 222 216 220 251 161 170 179 185 189 191 192 192 192 193 193 193 193 193 193 193 193 193 193 193 198 126  46  13  13  33  83 147 199 192 169 127 193 208 197 191 203 229 225 189 152 110 109 137 158 176 190 202 213 223 229 233 176  20
  14 163 222 221 220 222 223 223 207 242 241 164 166 176 180 182 184 184 185 185 185 185 185 185 185 185 185 185 185 185 185 188 191 191 191 191 190 187 185 182 161 119 184 198 191 203 229 225 190 152 110 108 137 157 175 189 202 213 223 229 230 232 177  18
  11 152 224 222 221 223 224 224 223 207 240 253 190 158 164 168 170 171 172 172 172 172 172 172 172 172 172 172 172 172 172 172 172 172 172 172 172 172 172 169 149 110 174 192 203 229 225 191 153 110 108 137 157 175 189 202 213 222 229 230 230 233 163  16
   8 113 227 221 223 224 225 224 226 225 210 223 254 251 222 209 208 209 209 208 208 208 208 208 208 208 208 208 208 208 208 208 208 208 208 208 208 208 209 205 181 136 173 203 229 226 191 153 110 107 136 157 175 189 201 213 222 229 230 230 230 235 123  14
   7  58 227 223 224 225 224 226 227 228 228 222 210 221 232 240 241 241 241 242 242 242 242 242 242 242 242 242 242 242 242 242 242 242 242 242 242 242 242 238 211 160 185 230 226 192 153 110 107 136 156 174 188 201 212 222 229 230 230 230 230 238  62  12
   4  43 173 226 225 224 226 227 228 229 228 230 230 229 226 223 223 224 225 226 226 227 228 228 228 228 228 228 228 228 228 228 228 228 228 228 228 228 228 224 196 148 205 227 192 154 110 105 136 156 174 188 201 212 222 229 230 230 230 230 232 185  43   8
  11  37 108 220 226 225 227 228 227 228 230 231 232 232 233 234 235 236 237 237 238 239 239 240 240 240 240 240 240 240 240 240 240 240 240 240 240 239 238 234 206 156 202 193 154 110 105 135 155 173 188 201 212 222 228 230 230 230 230 229 233 107  37  18
   9  20 105 136 228 227 228 227 229 230 231 230 231 233 234 235 234 235 237 238 237 239 240 240 240 240 240 240 240 240 240 240 240 240 240 240 240 238 239 233 205 156 180 155 113 104 135 155 173 188 200 212 222 228 230 230 230 230 229 236 149 100  21  14
  13   0 108 103 107 226 229 229 230 231 230 232 233 234 233 234 236 237 236 238 239 238 240 240 240 240 240 240 240 240 240 240 240 240 240 240 240 240 239 232 204 160 158 114 103 134 155 173 187 200 211 221 228 230 230 230 229 231 236 121 111 104   0  20
   0   0  63 110  57  80 200 231 232 231 232 233 232 235 235 236 237 236 238 237 239 240 240 240 240 240 240 240 240 240 240 240 240 240 240 240 240 240 238 231 208 177 116 103 134 157 177 190 199 211 221 228 230 229 229 231 236 209  79  66 119  59   0   0
   0  15   0 101  61  62  91 135 179 225 230 235 240 241 244 245 243 244 244 245 245 246 246 246 246 246 246 246 246 246 246 246 246 246 246 246 246 246 245 238 198 133 103 135 158 186 210 212 217 226 234 236 236 240 234 189 143  81  55  70 109   0  19   0
   0   0   1  13  68  62  97 103  71  40  62  83  97 110 146 151 116 104 102 102 103 103 104 104 104 104 104 104 104 104 104 104 104 104 104 104 104 104 103 102 101 104 108 106 109 129 159 135 107 100  96  92  82  62  40  75 105  89  56  77  15   2   0   0
   0   0  11   0  11  68  98 104  76  44  38  39  46  58  66  68  60  55  54  55  56  56  57  58  58  57  58  59  59  59  59  59  59  58  58  57  58  58  57  56  56  56  55  54  56  64  70  64  55  51  47  41  38  38  43  80 107  90  63  12   0  16   0   0
   0   0   0   9   0   3  76 113  77  44  38  40  48  54  55  56  55  56  56  57  58  58  59  60  59  60  60  61  61  61  61  61  61  60  61  60  59  60  59  59  58  58  57  56  57  56  55  56  54  53  49  42  38  38  43  81 113  71   3   0  11   0   0   0
   0   0   0   0   8   0   0  21  58  53  44  44  52  58  58  59  60  61  61  62  62  63  63  63  64  64  64  65  65  65  65  65  65  65  64  64  64  64  63  63  62  62  62  61  61  60  60  59  58  58  53  47  42  45  52  60  22   0   0  10   0   0   0   0
   0   0   0   0   0   0   4   0   0   0   7  13  16  17  17  17  17  18  18  18  18  18  18  18  18  18  18  18  18  18  18  18  18  18  18  18  18  18  18  18  18  18  18  18  18  17  17  17  17  17  16  15  12   7   0   0   0   6   0   0   0   0   0   0
   0   0   0   0   0   0   0   0   0   0   0   0   0   0   0   0   0   0   0   0   0   0   0   0   0   0   0   0   0   0   0   0   0   0   0   0   0   0   0   0   0   0   0   0   0   0   0   0   0   0   0   0   0   0   0   1   0   0   0   0   0   0   0   0
